<svg xmlns="http://www.w3.org/2000/svg" height="40" viewBox="0 96 960 960" width="40" fill="#FFF"><path d="M399.666 876q-106.667-101.334-170-166.334t-96.499-111.333Q100 552 90 515.833 80 479.667 80 436q0-92 64-156t156-64q45 0 87 16.5t75 47.5l-49.667 173.667q-5 16 5.167 29.166Q427.667 496 444.333 496h76.334l-32 278.667q-1 8 6.5 9t9.5-6l84-278.334q5.333-16-5-29.666-10.333-13.667-27-13.667H480l71-212q25-14 52.5-21t56.5-7q92 0 156 64t64 156q0 43-9.833 79.5-9.834 36.5-42.667 82.833t-95.833 111.5Q668.667 775 562.668 876q-34.001 32.333-81.501 32.333-47.501 0-81.501-32.333Z"/></svg>