<svg xmlns="http://www.w3.org/2000/svg" height="40" viewBox="0 96 960 960" width="40" fill="#FFF"><path d="M193.333 856Q179 856 169.5 846.5q-9.5-9.5-9.5-23.833 0-14.333 9.5-23.833 9.5-9.5 23.833-9.5h49.334V492q0-82.333 49.666-148.167Q342 278 422.667 260v-28.667q0-23.666 16.833-39.5Q456.333 176 480 176t40.5 15.833q16.833 15.834 16.833 39.5V260Q618 278 668 343.833 718 409.667 718 492v297.334h48.667q14.333 0 23.833 9.5 9.5 9.5 9.5 23.833 0 14.333-9.5 23.833-9.5 9.5-23.833 9.5H193.333ZM480 976q-32.333 0-56.167-23.5Q400 929 400 896h160q0 33-23.5 56.5T480 976Z"/></svg>