<svg id="Layer_2" data-name="Layer 2" xmlns="http://www.w3.org/2000/svg" viewBox="0 0 1000 1000"><defs><style>.cls-1{fill:#ffffff00;} .cls-2{fill:var(--svg-color);}</style></defs><path class="cls-1" d="M588.6,257C674.5,177.5,668.5,79.5,668.5,79.5c41,13,128,129,18.77,249.88"/><path class="cls-2" d="M599.21,267.56C647.71,222.4,679.4,159.47,683.3,93a114.76,114.76,0,0,0,.2-13.5L664.51,94a9.91,9.91,0,0,0,1.53.53c1.71.25,1.42,2-1.49-.67a14.58,14.58,0,0,0,3,1.41,64.94,64.94,0,0,1,6.84,4.12c.7.48,2.45,2.28,3.24,2.33-1.55-.1-2.72-2.21-.64-.47.6.5,1.21,1,1.81,1.5,2.42,2.05,4.75,4.22,7,6.47q3.63,3.64,7,7.57c1,1.19,2,2.43,3,3.62,2.18,2.58-2-2.77,0,0,.77,1.06,1.56,2.1,2.32,3.16a157.25,157.25,0,0,1,12.32,20.36q1.23,2.43,2.38,4.9c.46,1,.9,2,1.36,3,1.58,3.45-1.17-3,.22.52,1.67,4.25,3.26,8.51,4.6,12.87q1.92,6.18,3.31,12.49.64,2.94,1.17,5.89c.22,1.19.42,2.39.6,3.59.13.8.25,1.61.36,2.41-.27-2-.29-2.07-.08-.32a168,168,0,0,1,.47,29.33q-.29,3.33-.7,6.64c.44-3.52-.17,1-.24,1.39-.22,1.36-.46,2.72-.71,4.07A161.56,161.56,0,0,1,719,247.22q-1.29,4.25-2.8,8.42c-.51,1.42-1,2.84-1.59,4.25l-1.14,2.84c.51-1.22.41-1-.32.69a207.49,207.49,0,0,1-9.57,18.73,220.49,220.49,0,0,1-26.94,36.62c-5.41,6-5.95,15.27,0,21.21,5.5,5.5,15.78,6.06,21.21,0,35.55-39.62,60.91-90.12,57-144.55-2.77-38.36-18.37-75.65-44.53-104C699.93,80.19,687.25,69.84,672.49,65c-8.91-2.91-19.56,5-19,14.46.2,3.39.1,6.81,0,10.2-.15,3.82-.43,7.64-.81,11.44-.11,1.11-.23,2.22-.36,3.32-.08.72-.64,4.85-.22,1.94s-.22,1.43-.33,2.15c-.22,1.46-.45,2.92-.71,4.37A242.38,242.38,0,0,1,640.86,152q-1.85,5.27-3.93,10.45c-.32.79-.64,1.58-1,2.37,1.16-2.82,0-.1-.26.6-1,2.22-2,4.44-3,6.64A245.13,245.13,0,0,1,620.33,195a228.56,228.56,0,0,1-17.26,24.67A264.46,264.46,0,0,1,578,246.34c-5.93,5.53-5.58,15.63,0,21.22,5.92,5.91,15.27,5.53,21.22,0Z"/><path class="cls-1" d="M337.73,257.62c-85.9-79.45-79.9-177.45-79.9-177.45-41,13-128,129-18.77,249.87"/><path class="cls-2" d="M348.34,247c-15.55-14.48-27.89-28.83-38.79-45.68a243.52,243.52,0,0,1-13.21-23.06q-2.73-5.4-5.18-11c-.44-1-.87-2-1.3-3,.22.53,1.07,2.67,0,0-.77-2-1.57-3.9-2.31-5.87a244.34,244.34,0,0,1-11.44-40.31q-.78-4-1.41-8.09c-.2-1.26-.37-2.52-.56-3.78-.32-2.05.48,4.09.16,1.17-.09-.78-.19-1.55-.28-2.33Q273.32,99,273,92.8a113.24,113.24,0,0,1-.15-12.63c.57-9.49-10.08-17.37-19-14.47-28.66,9.34-50.69,37.9-63.77,63.72-19.8,39.06-24.43,84.38-11.7,126.45,9.66,31.9,28,60.12,50.08,84.78,5.41,6,15.7,5.51,21.21,0,6-6,5.43-15.17,0-21.21a221,221,0,0,1-24.77-33,167.61,167.61,0,0,1-15-30.85,163.23,163.23,0,0,1-4.83-16c-.56-2.28-1.07-4.56-1.52-6.86-.27-1.36-.52-2.72-.76-4.08-.1-.6-.91-6.26-.46-2.74a151.36,151.36,0,0,1-.81-29.79c.15-2.07.38-4.12.58-6.19.38-4.13-.54,3.19.09-.88.19-1.2.37-2.41.58-3.6q1.2-7.06,3.07-14,1.65-6.13,3.8-12.13.94-2.67,2-5.29c.26-.66,1.8-4.16.2-.55.59-1.34,1.18-2.69,1.8-4a159.88,159.88,0,0,1,11.86-21.14c.93-1.39,1.87-2.76,2.84-4.12.66-.92,4.64-6,1.73-2.41,2.34-2.87,4.68-5.73,7.2-8.45s5.15-5.35,7.9-7.84q1.78-1.6,3.63-3.13a21.21,21.21,0,0,0,1.81-1.44c-2.05,1.57-2.46,1.9-1.25,1l1.18-.86a67.5,67.5,0,0,1,7.48-4.7c1.07-.58,2.2-1,3.28-1.62,2.2-1.18-3.82,1.31-1.48.63.69-.2,1.36-.5,2.05-.72l-19-14.46c-.84,14,1.27,28.56,3.69,42.29a256.82,256.82,0,0,0,34,89,272.38,272.38,0,0,0,46.64,56.77c5.93,5.52,15.34,5.87,21.22,0,5.58-5.58,6-15.67,0-21.21Z"/><circle class="cls-1" cx="462.5" cy="534.5" r="300"/><path class="cls-2" d="M747.5,534.5c0,7.93-.31,15.86-.93,23.77q-.44,5.52-1.07,11c-.08.71-.77,6-.33,2.84q-.46,3.39-1,6.77a297.78,297.78,0,0,1-10.82,44.66c-2.28,7-4.83,13.86-7.59,20.66-.16.38-1.24,3-.53,1.27s-.38.88-.55,1.26q-1.2,2.73-2.44,5.45-2.36,5.12-4.89,10.13a301.51,301.51,0,0,1-22.75,37.73q-3.23,4.55-6.61,9c-1.4,1.83,1.37-1.73-.06.07-.55.68-1.09,1.37-1.63,2q-1.85,2.31-3.73,4.57-7.11,8.55-14.86,16.56t-16,15.42q-3.9,3.49-7.93,6.84-2,1.68-4.06,3.32l-2,1.63c-3.37,2.72,2.36-1.74-1.1.87a310.56,310.56,0,0,1-36.86,24q-9.84,5.43-20.06,10.11-2.42,1.1-4.85,2.16c-.38.17-2.94,1.27-1.26.55l-1.27.53c-3.7,1.5-7.43,3-11.18,4.32a297.35,297.35,0,0,1-43.4,12.15q-5.35,1.06-10.74,1.94c-1.8.3-3.61.56-5.41.83-3,.44-.71.1-.1,0-1.36.18-2.73.35-4.1.5q-11.73,1.37-23.54,1.79a302.84,302.84,0,0,1-47.41-1.95l-2.73-.34c.61.08,2.87.42-.1,0-1.8-.27-3.61-.53-5.41-.83-3.82-.61-7.62-1.31-11.41-2.07q-11.26-2.28-22.33-5.43-10.64-3-21-6.82c-3.55-1.3-7.06-2.67-10.56-4.09l-1.27-.53c1.68.72-.88-.38-1.26-.55q-2.73-1.2-5.45-2.44a299.86,299.86,0,0,1-39.18-21.72q-9.33-6.12-18.18-12.93c2.41,1.86-1.59-1.28-2.11-1.7q-2.06-1.64-4.06-3.32-4.53-3.76-8.91-7.71A302.88,302.88,0,0,1,242,715.23c-1.11-1.35-2.22-2.7-3.31-4.07-.54-.68-1.08-1.37-1.63-2-1.43-1.8,1.34,1.76-.06-.07q-3.59-4.69-7-9.52-6.24-8.85-11.84-18.16-5.77-9.6-10.83-19.62c-1.58-3.15-3.12-6.33-4.59-9.54q-1.25-2.72-2.44-5.45c-.17-.38-1.27-2.94-.55-1.26s-.65-1.56-.78-1.89a298.16,298.16,0,0,1-13.9-43.36q-2.69-11.25-4.48-22.69-.42-2.7-.8-5.42c.44,3.16-.25-2.13-.33-2.84q-.67-5.84-1.12-11.71a304.37,304.37,0,0,1,.1-47.55q.45-5.5,1.1-11c.1-.91.22-1.82.33-2.73.3-2.4-.33,2.29,0-.1.3-2,.6-4.06.93-6.09q1.85-11.42,4.58-22.66a310,310,0,0,1,14.09-43.27c.2-.51,1.13-2.65,0-.09l1-2.44q1.07-2.43,2.18-4.84,2.49-5.42,5.19-10.72,5.09-10,10.91-19.57,5.64-9.27,11.92-18.11c2.15-3,4.36-6,6.63-9-1.86,2.41,1.28-1.59,1.7-2.11,1.23-1.54,2.48-3.05,3.74-4.56a302,302,0,0,1,30.47-31.48q4.16-3.71,8.43-7.26c1.35-1.11,2.7-2.22,4.07-3.31l2.05-1.63c1.35-1.07-1.64,1.22.59-.46,5.94-4.48,12-8.79,18.24-12.85A299.53,299.53,0,0,1,346,274.23c1.61-.74,3.23-1.44,4.85-2.16.49-.22,2.65-1.12.08-.05l2.46-1q5.55-2.26,11.19-4.3Q375,263,385.65,260q11.09-3.09,22.38-5.32,5.36-1.07,10.74-1.92c1.81-.29,3.61-.56,5.42-.82,2.39-.34-2.3.29.1,0,1.37-.17,2.74-.34,4.1-.49a303,303,0,0,1,46.76-1.66q11.78.5,23.51,1.9l2.73.34c-2.85-.37-.46-.06.1,0,1.8.27,3.61.53,5.41.83q6.06,1,12.07,2.21a296.51,296.51,0,0,1,43.94,12.57c3.33,1.24,6.63,2.55,9.92,3.89.51.2,2.65,1.13.09,0l2.44,1.05c1.82.8,3.64,1.62,5.44,2.46q10.2,4.71,20,10.19a297,297,0,0,1,36.74,24.18c-2.28-1.76,1.41,1.13,2.11,1.7q2.05,1.64,4.06,3.32,4.53,3.76,8.91,7.71,8.26,7.45,16,15.49t14.79,16.63c1.11,1.35,2.21,2.7,3.3,4.07l1.62,2.06c-.36-.46-1.67-2.22.06.07,2.37,3.15,4.71,6.31,7,9.53a299.93,299.93,0,0,1,22.58,37.84q2.37,4.74,4.58,9.55c.83,1.81,1.62,3.64,2.43,5.46.22.49,1.12,2.65.05.08l1.26,3.07q4.13,10.22,7.5,20.71a297.17,297.17,0,0,1,10.63,44.73q.42,2.7.8,5.42c-.41-3,.22,1.89.33,2.84q.64,5.49,1.07,11c.62,7.91.91,15.84.93,23.77s6.89,15.36,15,15,15-6.59,15-15c-.15-64.7-20.11-129-57.78-181.77A319.68,319.68,0,0,0,569.64,238.24c-61.44-22.51-130.37-24.68-193.26-6.82A315.21,315.21,0,0,0,193,697.63C225.53,751.2,274.29,795.09,331.47,821a319.27,319.27,0,0,0,194.81,22c62-12.53,119.83-44.79,163.54-90.44,44-46,74.06-105.37,83.69-168.39a334.46,334.46,0,0,0,4-49.67c0-7.85-6.91-15.36-15-15S747.52,526.09,747.5,534.5Z"/><path class="cls-2" d="M907.5,566.5l-124-15.1L766,549.28c-7.82-1-15.34,7.58-15,15,.4,8.94,6.62,14,15,15l124,15.09,17.47,2.13c7.82,1,15.33-7.58,15-15-.4-8.94-6.62-14-15-15Z"/><path class="cls-2" d="M855.23,696.83l9.16-35.59,21.87-84.94L912.7,473.59l23-89.24c3.71-14.39,7.86-28.74,11.13-43.23.05-.21.11-.42.16-.63,2-7.59-2.48-16.63-10.47-18.45-7.82-1.78-16.36,2.34-18.45,10.47l-9.16,35.59L887,453,860.57,555.75l-23,89.24c-3.7,14.39-7.85,28.74-11.12,43.23-.05.21-.11.42-.17.63-1.95,7.59,2.49,16.63,10.48,18.45,7.82,1.78,16.36-2.34,18.45-10.47Z"/><path class="cls-2" d="M883.51,334l80.39,23.6,11.61,3.4c8.91,2.62,19.6-4.75,19-14.46l-7.87-126-1.13-18c-1-15.36-19.31-19.76-28-7.57L884.82,297.43l-10.27,14.5c-4.69,6.61-1.18,16.69,5.38,20.52,7.52,4.4,15.82,1.25,20.52-5.38L973.18,224.5,983.45,210l-28-7.57,7.87,126,1.13,18,19-14.46-80.39-23.6L891.49,305c-7.53-2.21-16.68,2.66-18.45,10.47C871.2,323.55,875.45,331.6,883.51,334Z"/><path class="cls-2" d="M666,909.5H550.37l14.47,11-19.65-81.1-2.84-11.72c-1.91-7.87-10.82-12.57-18.46-10.47-8,2.21-12.39,10.55-10.47,18.45l19.65,81.1,2.84,11.72c1.54,6.37,8,11,14.46,11H666c7.85,0,15.36-6.9,15-15s-6.59-15-15-15Z"/><path class="cls-2" d="M260,939.5H375.63c6.41,0,12.92-4.64,14.46-11l19.65-81.11,2.84-11.71c1.85-7.61-2.41-16.61-10.47-18.45-7.73-1.76-16.48,2.32-18.46,10.47L364,908.8l-2.84,11.71,14.47-11H260c-7.85,0-15.36,6.9-15,15s6.59,15,15,15Z"/><path class="cls-2" d="M22.85,596.87l121.45-15.1,17-2.12c7.76-1,15.39-6.21,15-15-.33-7.3-6.66-16-15-15L39.87,564.76l-17,2.11c-7.75,1-15.39,6.21-15,15,.33,7.3,6.66,16,15,15Z"/><path class="cls-2" d="M34.5,527.5l8.76,86.73L44.5,626.5c.79,7.78,6.34,15.39,15,15,7.45-.33,15.84-6.64,15-15l-8.76-86.73L64.5,527.5c-.79-7.78-6.34-15.39-15-15-7.45.33-15.84,6.64-15,15Z"/><path class="cls-2" d="M591.93,482.55l-73.49,53.37-10.51,7.63c-6.55,4.75-9.76,13-5.38,20.52,3.78,6.46,13.93,10.17,20.52,5.38l73.49-53.37,10.51-7.63c6.55-4.75,9.76-13,5.38-20.52-3.78-6.46-13.93-10.17-20.52-5.38Z"/><path class="cls-2" d="M318.21,508.68l73.49,53.37,10.51,7.63c6.56,4.76,16.72,1.12,20.52-5.38,4.43-7.58,1.19-15.75-5.38-20.52l-73.49-53.37-10.51-7.63c-6.56-4.77-16.72-1.12-20.52,5.38-4.44,7.58-1.2,15.75,5.38,20.52Z"/><path class="cls-2" d="M486.5,695.5c0,.8-.66,5.93-.07,2.87-.3,1.55-.68,3.06-1.1,4.58-.12.4-1,3-.37,1.33s-.39.83-.59,1.22c-.82,1.55-1.74,3-2.67,4.5-1.2,1.92,1.47-1.62,0,.07-.58.65-1.14,1.31-1.75,1.93a37.49,37.49,0,0,1-3.34,3.09c2.34-1.9-1.74,1-2.34,1.35-1,.56-5,2.12-2.4,1.26-1.7.56-3.42,1-5.14,1.47-.57.17-2.9.43,0,.11-.92.1-1.84.16-2.76.2a46.51,46.51,0,0,1-4.87-.14c-2.39-.17,2.23.49-.07,0-1.1-.25-2.19-.47-3.27-.78-.64-.18-1.27-.42-1.91-.61-2.2-.65,2,1-.09,0a38.38,38.38,0,0,1-4.05-2.17c-.75-.45-1.46-.94-2.18-1.44,2.2,1.53.41.35,0-.08-1.42-1.37-2.81-2.69-4.1-4.18-1.11-1.28.21.27.34.47-.5-.72-1-1.44-1.44-2.18a33.17,33.17,0,0,1-2.45-4.64c1.11,2.64-.24-1.19-.48-2.06s-.4-1.75-.6-2.62c-.38-1.65,0,2.11-.1-.75,0-1.64-.13-3.25,0-4.88,0-.45.39-3.31.08-1.43s.24-.91.34-1.34c.35-1.52.83-3,1.32-4.48-.83,2.5-.28.52,0-.07.51-1,1-1.94,1.56-2.89.47-.78,2.74-3.89,1-1.78a38.68,38.68,0,0,1,3.56-3.8q.94-.89,1.95-1.71c-.55.45-2.21,1.36.12,0,1.52-.87,3-1.78,4.55-2.6,2.54-1.33.64-.22.07,0,.84-.28,1.67-.57,2.53-.82.71-.21,4.74-1.07,3.29-.84s2.73-.14,3.52-.14,1.85.06,2.79.1c4.19.18-1.54-.41.75.1a57.84,57.84,0,0,1,5.8,1.6c-2.75-.91,2.16,1.12,3,1.59.56.33,1.1.72,1.66,1,3.18,1.83-1.52-1.72,1.11.82,1.25,1.21,2.47,2.43,3.68,3.68,1.91,2,.45.57.08,0,.62.9,1.22,1.8,1.78,2.74.33.57.66,1.14,1,1.72s1.59,4.14.63,1.24c.56,1.7,1,3.4,1.47,5.14.71,2.75.19.74.11,0,.15,1.38.2,2.77.22,4.16.14,7.84,6.8,15.37,15,15,8-.36,15.15-6.59,15-15a54.93,54.93,0,0,0-36.68-51.13c-20.2-7.17-44.36-.56-58.12,15.84-14.81,17.65-17.65,43.38-5.38,63.29,12,19.54,34.66,28.94,57,24.86,25.12-4.58,42.71-27.93,43.15-52.86.14-7.85-7-15.36-15-15C493.25,680.87,486.65,687.09,486.5,695.5Z"/><path class="cls-2" d="M736.22,396.54H256c-22.07,0-44.23-.61-66.3,0h-.95c-7.85,0-15.37,6.9-15,15s6.59,15,15,15H669c22.07,0,44.23.61,66.3,0,.31,0,.63,0,1,0,7.85,0,15.37-6.9,15-15s-6.59-15-15-15Z"/></svg>